<?xml version="1.0" encoding="utf-8"?>
<!-- Generator: Adobe Illustrator 23.0.4, SVG Export Plug-In . SVG Version: 6.00 Build 0)  -->
<svg version="1.1" id="hands-frame" xmlns="http://www.w3.org/2000/svg" xmlns:xlink="http://www.w3.org/1999/xlink" x="0px"
	 y="0px" viewBox="0 0 485 468.9" style="enable-background:new 0 0 485 468.9;" xml:space="preserve">
<style type="text/css">
	.frame-color{fill:#47D79A;}
	.background-color{fill:#ffffff;}
	.outline{fill:#E6E6E6;}
	.hands-background{fill:#FFFFFF;}
	.shadow-35{opacity:0.35;fill:#000000;}
	.show_on_white{opacity:0;}
	.hide_on_white{opacity:1;}
</style>
	<path id="HandsBackground" class="hands-background" d="M101.1,464.8H82.4c0,0-2.8,0.1-6.3-2.7c0,0-6.7,3.9-18.1,3.9c-17,0-29.7-10.3-29.7-10.3
	c-0.1-0.1-0.3-0.1-0.4-0.1h-15c-2.7,0-9.1-1-9.1-10.6v-27.1c0-5.9,4.8-10.7,10.7-10.7h14.4l-0.4,2.7c-0.3,1.9-0.4,4-0.4,6.2
	c0,0.3,0.2,0.5,0.2,0.5c0.1,0.1,0.3,0.2,0.5,0.2c0.3,0,0.5-0.2,0.5-0.2c0.1-0.1,0.2-0.3,0.2-0.5c-0.4-15.7,8.6-19.8,25-27.1l0.9-0.4
	c12.7-5.7,12.4-17.4,12.2-24.4c-0.1-1.6-0.1-3,0-3.9l0.2-1.3l1.2-0.5c0.4-0.2,1.3-0.5,2.7-0.5c0.4,0,0.9,0,1.4,0.1
	c1.7,0.3,4.9,1.3,7.2,5c3.8,6.2,2.9,17.9-0.3,24.4c-2,4.1-2.1,8.1-0.4,10.8c1.6,2.5,4.5,3.8,8.5,3.8h61.7c2.8,0,5.1,0.8,6.6,2.3
	c1.3,1.3,2,3,2,4.9c0,3.2-2.2,6.4-6.3,6.4h-53c-0.4,0-0.8,0.3-0.8,0.8s0.3,0.8,0.8,0.8h19.1c4,0,7.3,3.3,7.3,7.3s-3.3,7.3-7.3,7.3
	h-20c-0.4,0-0.8,0.3-0.8,0.8s0.3,0.8,0.8,0.8h11.1c5.6,0,7.3,4.3,7.3,8.3s-3.3,7.3-7.3,7.3H98.2l-0.2,0.1c-0.2,0.1-0.5,0.3-0.5,0.7
	s0.2,0.6,0.5,0.7l4.5,0.2c3.3,0.6,5.9,3.6,5.9,7.1C108.4,461.5,105.1,464.8,101.1,464.8c0,0-0.1,0-0.2,0.1 M472.1,16.7h-16
	c-0.2,0-0.3,0-0.4-0.1c-11.1-7.7-37.2-18.1-65.4-9.9l0,0l-2.1,0.7c-0.1,0-0.2,0.1-0.2,0.1c-4,0-7.3,3.3-7.3,7.3
	c0,3.5,2.5,6.5,5.9,7.1l0.5,0.2c0.2,0.1,0.5,0.3,0.5,0.7s-0.2,0.6-0.5,0.7l-0.2,0.1h-7.2c-4,0-7.3,3.3-7.3,7.3s3.3,7.3,7.3,7.3h7.1
	c0.4,0,0.8,0.3,0.8,0.8s-0.3,0.8-0.8,0.8h-16c-4,0-7.3,3.3-7.3,7.3s3.3,7.3,7.3,7.3h15.1c0.4,0,0.8,0.3,0.8,0.8s-0.3,0.8-0.8,0.8
	h-53c-4.2,0-6.3,3.2-6.3,6.4c0,1.9,0.7,3.6,2,4.9c1.5,1.5,3.8,2.3,6.6,2.3h61.7c4,0,6.9,1.3,8.5,3.8c1.7,2.8,1.6,6.7-0.4,10.8
	c-3.2,6.5-4,18.2-0.3,24.4c2.3,3.7,5.5,4.8,7.2,5c0.5,0.1,1,0.1,1.4,0.1c1.3,0,2.3-0.3,2.7-0.5l1.2-0.5l0.2-1.3
	c0.1-0.9,0.1-2.3,0-3.9c-0.2-7-0.6-18.7,12.2-24.4l0.9-0.4c16.4-7.3,25.4-11.3,25-27.1c0-0.3,0.1-0.5,0.2-0.5s0.3-0.2,0.5-0.2
	c0.3,0,0.4,0.1,0.5,0.2c0.1,0.1,0.2,0.3,0.2,0.5c0.1,2.2-0.1,4.3-0.4,6.2l-0.4,2.7h14.4c5.9,0,10.7-4.8,10.7-10.7V27.3
	C481.2,17.8,474.8,16.7,472.1,16.7z"/>
	<path id="FrameBody" class="frame-color" d="M301.7,64.7c0,1.7-1.3,3-3,3H75.4v260.5c0,1.7-1.3,3-3,3s-3-1.3-3-3V67.7h-27c-1.7,0-3-1.3-3-3
	c0-1.7,1.3-3,3-3h27v-27c0-1.7,1.3-3,3-3s3,1.3,3,3v27h223.3C300.4,61.7,301.7,63.1,301.7,64.7z M189.2,412.3h223.3v27
	c0,1.7,1.3,3,3,3s3-1.3,3-3v-27h27c1.7,0,3-1.3,3-3s-1.3-3-3-3h-27V145.9c0-1.7-1.3-3-3-3s-3,1.3-3,3v260.5H189.2c-1.7,0-3,1.3-3,3
	S187.5,412.3,189.2,412.3z M162.3,409.7c0,4.9-3.5,10.2-10.1,10.2h-25c0.8,1.5,1.2,3.2,1.2,5c0,5.8-4.5,10.5-10.2,11
	c0.8,1.5,1.2,3.2,1.2,5.1c0,5.6-4.2,10.2-9.6,10.9c0.8,1.5,1.3,3.3,1.3,5.1c0,6.1-4.9,11-11,11H82.3c-2.5,0-4.7-0.8-6.6-2.2
	c-5.2,2-10.7,3-16.3,3c-10.5,0-21.4-3.4-31.5-10.1h-15C5,458.7,0,453.2,0,444.3v-26.1c0-8,6.5-14.5,14.5-14.5h13.6
	c4-8.6,13-12.6,25-17.9l0.9-0.4c10.4-4.6,10.1-14,9.9-20.8c-0.1-3.7-0.2-6.3,1.6-8c1.8-1.7,4.8-2.4,8-2c2.4,0.3,7,1.6,10.2,6.8
	c4.6,7.6,3.6,20.5-0.1,28c-1.4,2.9-1.6,5.6-0.6,7.2c1.1,1.7,3.5,2,5.3,2H150c4.8,0,7.7,1.8,9.3,3.3
	C161.2,404.1,162.3,406.8,162.3,409.7z M105.2,457c0-2.8-2.3-5-5-5H82.3c-2.8,0-5,2.3-5,5s2.3,5,5,5h17.9
	C103,462.1,105.2,459.8,105.2,457z M113.5,441c0-2.8-2.3-5-5-5H83.2h-0.9c-2.8,0-5,2.3-5,5s2.3,5,5,5h17.9h8.3
	C111.2,446,113.5,443.8,113.5,441z M117.4,419.9h-13H83.2c-2.2,0-4.1,1.4-4.7,3.4c-0.1,0.4-0.2,0.8-0.2,1.1c0,0.2,0,0.3,0,0.5
	c0,2.8,2.3,5,5,5h25.3h8.9c2.8,0,5-2.3,5-5S120.2,419.9,117.4,419.9z M156.3,409.7c0-1.3-0.5-2.4-1.4-3.3c-1.1-1.1-2.9-1.7-5.1-1.7
	H88.2c-6.1,0-9-2.6-10.4-4.8c-2.1-3.4-2-8.1,0.3-13c2.9-6,3.7-16.8,0.4-22.3c-1.8-3-4.3-3.8-5.7-4c-1.4-0.2-2.4,0-2.9,0.2
	c-0.1,0.8,0,2.4,0,3.6c0.2,7.1,0.6,20.2-13.5,26.5l-0.9,0.4c-16.5,7.4-24.1,10.7-23.7,25c0,1.7-1.3,3-2.9,3.1c-1.7,0-3-1.3-3.1-2.9
	c-0.1-2.5,0.1-4.7,0.4-6.7H14.5c-4.7,0-8.5,3.8-8.5,8.5v26.1c0,3.8,1.2,8.4,6.9,8.4h16.9l0.8,0.5c18.1,12.5,33.5,10.3,41.4,7.6
	c-0.4-1.2-0.7-2.5-0.7-3.8c0-3.2,1.3-6,3.5-8c-2.1-2-3.5-4.9-3.5-8c0-0.8,0.1-1.6,0.3-2.4c-3.5,4.5-8,8.3-13.3,10.8
	c-0.4,0.2-0.9,0.3-1.3,0.3c-1.1,0-2.2-0.6-2.7-1.7c-0.7-1.5-0.1-3.3,1.4-4c8.4-4,14.4-11.7,16.6-20.5c0.1-0.6,0.2-1.3,0.4-1.9
	c0.3-1.8,0.5-3.6,0.5-5.4c0-2.1-0.2-4.2-0.6-6.2c-0.3-1.6,0.7-3.2,2.3-3.5c1.6-0.3,3.2,0.7,3.5,2.3c0.4,1.9,0.6,3.9,0.7,5.9
	c1.3-0.5,2.6-0.8,4.1-0.8h21.2h13h34.8C155.5,413.9,156.3,411.3,156.3,409.7z M485,27.3v26.1c0,8-6.5,14.5-14.5,14.5h-13.6
	c-4,8.6-13,12.6-25,17.9l-0.9,0.4c-10.4,4.6-10.1,14-9.9,20.8c0.1,3.7,0.2,6.3-1.6,8c-1.4,1.4-3.8,2.1-6.3,2.1c-0.6,0-1.1,0-1.7-0.1
	c-2.4-0.3-7-1.6-10.2-6.8c-4.6-7.6-3.6-20.5,0.1-28c1.4-2.9,1.6-5.6,0.6-7.2c-1.1-1.7-3.5-2-5.3-2H335c-4.8,0-7.7-1.8-9.3-3.3
	c-2.1-2-3.2-4.7-3.2-7.6c0-4.9,3.5-10.2,10.1-10.2h28.1c-0.8-1.5-1.2-3.2-1.2-5c0-5.8,4.5-10.5,10.2-11c-0.8-1.5-1.2-3.2-1.2-5.1
	c0-5.6,4.2-10.2,9.6-10.9c-0.8-1.5-1.3-3.3-1.3-5.1c0-5.9,4.7-10.7,10.5-11c26.2-8.4,53.6-1.5,69.7,9.3h15.1
	C480,13,485,18.5,485,27.3z M479,27.3c0-6.9-3.7-8.4-6.9-8.4h-16.9l-0.8-0.5c-11.1-7.6-37.4-18.1-65.6-8.9c-0.1,0-0.1,0-0.2,0
	s-0.2,0-0.3,0.1c-0.1,0-0.2,0-0.3,0c-0.1,0-0.1,0-0.1,0c-2.8,0-5,2.3-5,5s2.3,5,5,5V20c1,0.5,1.8,1.5,1.8,2.7s-0.7,2.3-1.8,2.7v0.3
	h-1.2h-7.1c-2.8,0-5,2.3-5,5s2.3,5,5,5h6.1h0.9c1.7,0,3,1.3,3,3s-1.3,3-3,3h-0.9h-6.1h-8.9c-2.8,0-5,2.3-5,5s2.3,5,5,5h10h5.1
	c1.7,0,3,1.3,3,3s-1.3,3-3,3h-5.1h-10h-37.9c-3.2,0-4.1,2.6-4.1,4.2c0,1.3,0.5,2.4,1.4,3.3c1.1,1.1,2.9,1.7,5.1,1.7h61.7
	c6.1,0,9,2.6,10.4,4.8c2.1,3.4,2,8.1-0.3,13c-2.9,6-3.7,16.8-0.4,22.3c1.8,3,4.3,3.8,5.7,4c1.4,0.2,2.4,0,2.9-0.2
	c0.1-0.8,0-2.4,0-3.6c-0.2-7.1-0.6-20.2,13.5-26.5l0.9-0.4c16.5-7.4,24.1-10.7,23.7-25c0-1.7,1.3-3,2.9-3.1c1.7,0,3,1.3,3.1,2.9
	c0.1,2.5-0.1,4.7-0.4,6.7h11.8c4.7,0,8.5-3.8,8.5-8.5v-26C479.2,27.3,479,27.3,479,27.3z"/>
	<path id="WhiteBackground" class="background-color" d="M367.8,94.9H116.1c-7.6,0-13.7,6.2-13.7,13.7v251.7c0,7.6,6.2,13.7,13.7,13.7h251.6
	c7.6,0,13.7-6.2,13.8-13.7V108.6C381.5,101,375.3,94.9,367.8,94.9z"/>
	<svg id="TextArea" x="165" y="410" width="240" height="65" viewBox="0 0 134.81982421875 17.588541666667" preserveAspectRatio="xMidYMid meet">
<svg version="1.1" xmlns="http://www.w3.org/2000/svg"><path class="frame-color" fill="#FFFFFF" d=" M8.37890625,11.09130859375q0,1.02587890625-0.7412109375,1.61669921875t-2.0625,0.5908203125q-1.396484375,0-2.1591796875-0.37060546875l0-0.9453125q0.49951171875,0.21484375,1.093017578125,0.33837890625t1.109130859375,0.12353515625q0.880859375,0,1.32666015625-0.33837890625t0.44580078125-0.92919921875q0-0.39208984375-0.1611328125-0.64453125t-0.539794921875-0.47265625t-1.146728515625-0.49951171875q-1.09033203125-0.3974609375-1.5576171875-0.937255859375t-0.46728515625-1.393798828125q0-0.91845703125,0.690185546875-1.4609375t1.818115234375-0.54248046875q1.17626953125,0,2.16455078125,0.4404296875l-0.30615234375,0.8486328125q-1.009765625-0.4189453125-1.8798828125-0.4189453125q-0.6982421875,0-1.093017578125,0.30078125t-0.394775390625,0.84326171875q0,0.38671875,0.153076171875,0.641845703125t0.494140625,0.464599609375t1.071533203125,0.47802734375q0.87548828125,0.322265625,1.30517578125,0.625732421875t0.6337890625,0.6982421875t0.2041015625,0.942626953125z M12.1923828125,13.298828125q-1.27294921875,0-1.98193359375-0.781494140625t-0.708984375-2.242431640625q0-1.482421875,0.717041015625-2.285400390625t2.043701171875-0.802978515625q0.4296875,0,0.851318359375,0.088623046875t0.695556640625,0.228271484375l-0.29541015625,0.8056640625q-0.74658203125-0.279296875-1.27294921875-0.279296875q-0.8916015625,0-1.31591796875,0.561279296875t-0.42431640625,1.673095703125q0,1.06884765625,0.42431640625,1.635498046875t1.2568359375,0.566650390625q0.77880859375,0,1.53076171875-0.34375l0,0.859375q-0.6123046875,0.31689453125-1.52001953125,0.31689453125z M18.75048828125,13.19140625l-0.18798828125-0.837890625l-0.04296875,0q-0.4404296875,0.55322265625-0.878173828125,0.749267578125t-1.103759765625,0.196044921875q-0.8701171875,0-1.3642578125-0.45654296875t-0.494140625-1.2890625q0-1.7939453125,2.83056640625-1.8798828125l0.9990234375-0.03759765625l0-0.34912109375q0-0.67138671875-0.2900390625-0.990966796875t-0.92919921875-0.319580078125q-0.46728515625,0-0.883544921875,0.1396484375t-0.781494140625,0.3115234375l-0.29541015625-0.72509765625q0.44580078125-0.236328125,0.97216796875-0.37060546875t1.0419921875-0.13427734375q1.06884765625,0,1.58984375,0.47265625t0.52099609375,1.50390625l0,4.017578125l-0.70361328125,0z M16.7578125,12.52001953125q0.81103515625,0,1.275634765625-0.437744140625t0.464599609375-1.243408203125l0-0.53173828125l-0.8701171875,0.03759765625q-1.01513671875,0.03759765625-1.479736328125,0.322265625t-0.464599609375,0.89697265625q0,0.4619140625,0.281982421875,0.708984375t0.792236328125,0.2470703125z M25.2978515625,13.19140625l0-3.7705078125q0-0.7197265625-0.319580078125-1.071533203125t-1.001708984375-0.351806640625q-0.90771484375,0-1.318603515625,0.502197265625t-0.410888671875,1.635498046875l0,3.05615234375l-0.966796875,0l0-5.8974609375l0.77880859375,0l0.14501953125,0.8056640625l0.0537109375,0q0.27392578125-0.43505859375,0.76806640625-0.674072265625t1.09033203125-0.239013671875q1.0849609375,0,1.611328125,0.5263671875t0.5263671875,1.63818359375l0,3.84033203125l-0.9560546875,0z  M34.5361328125,13.19140625l-2.5888671875-6.8857421875l-0.04296875,0q0.08056640625,0.859375,0.08056640625,2.12158203125l0,4.76416015625l-0.9130859375,0l0-7.8525390625l1.4609375,0l2.42236328125,6.4345703125l0.04296875,0l2.46533203125-6.4345703125l1.4501953125,0l0,7.8525390625l-0.9775390625,0l0-4.82861328125q0-0.8056640625,0.0751953125-2.04638671875l-0.04296875,0l-2.62109375,6.875l-0.81103515625,0z M43.42529296875,13.298828125q-1.32666015625,0-2.081298828125-0.802978515625t-0.754638671875-2.210205078125q0-1.41796875,0.70361328125-2.258544921875t1.9013671875-0.840576171875q1.11181640625,0,1.7724609375,0.717041015625t0.66064453125,1.941650390625l0,0.58544921875l-4.0390625,0q0.02685546875,1.00439453125,0.51025390625,1.525390625t1.36962890625,0.52099609375q0.47265625,0,0.89697265625-0.083251953125t0.99365234375-0.324951171875l0,0.8486328125q-0.48876953125,0.20947265625-0.91845703125,0.29541015625t-1.01513671875,0.0859375z M43.18359375,7.97607421875q-0.69287109375,0-1.095703125,0.44580078125t-0.47802734375,1.24072265625l3.00244140625,0q-0.0107421875-0.8271484375-0.38134765625-1.2568359375t-1.04736328125-0.4296875z  M51.1005859375,13.19140625l-0.98828125,0l0-7.8525390625l4.38818359375,0l0,0.8701171875l-3.39990234375,0l0,2.7822265625l3.1904296875,0l0,0.86474609375l-3.1904296875,0l0,3.33544921875z M60.8115234375,10.23193359375q0,1.44482421875-0.73046875,2.255859375t-2.01953125,0.81103515625q-0.80029296875,0-1.41796875-0.373291015625t-0.95068359375-1.071533203125t-0.3330078125-1.6220703125q0-1.439453125,0.7197265625-2.242431640625t2.01953125-0.802978515625q1.24609375,0,1.979248046875,0.819091796875t0.733154296875,2.226318359375z M56.35888671875,10.23193359375q0,1.11181640625,0.437744140625,1.689208984375t1.291748046875,0.577392578125q0.84326171875,0,1.28369140625-0.577392578125t0.4404296875-1.689208984375t-0.443115234375-1.673095703125t-1.297119140625-0.561279296875q-1.71337890625,0-1.71337890625,2.234375z M65.09228515625,7.1865234375q0.39208984375,0,0.69287109375,0.064453125l-0.1181640625,0.8916015625q-0.32763671875-0.0751953125-0.63916015625-0.0751953125q-0.46728515625,0-0.867431640625,0.2578125t-0.625732421875,0.711669921875t-0.2255859375,1.007080078125l0,3.1474609375l-0.966796875,0l0-5.8974609375l0.794921875,0l0.107421875,1.07958984375l0.04296875,0q0.33837890625-0.58544921875,0.80029296875-0.88623046875t1.00439453125-0.30078125z  M76.10302734375,13.19140625l-1.15478515625,0l-4.20556640625-6.5205078125l-0.04296875,0l0.02685546875,0.43505859375q0.064453125,0.9775390625,0.064453125,1.697265625l0,4.38818359375l-0.9130859375,0l0-7.8525390625l1.14404296875,0l0.24169921875,0.38134765625l2.578125,3.9853515625l1.36962890625,2.13232421875l0.04296875,0q-0.0107421875-0.12890625-0.04296875-0.921142578125t-0.0322265625-1.146728515625l0-4.43115234375l0.923828125,0l0,7.8525390625z M80.609375,13.298828125q-1.32666015625,0-2.081298828125-0.802978515625t-0.754638671875-2.210205078125q0-1.41796875,0.70361328125-2.258544921875t1.9013671875-0.840576171875q1.11181640625,0,1.7724609375,0.717041015625t0.66064453125,1.941650390625l0,0.58544921875l-4.0390625,0q0.02685546875,1.00439453125,0.51025390625,1.525390625t1.36962890625,0.52099609375q0.47265625,0,0.89697265625-0.083251953125t0.99365234375-0.324951171875l0,0.8486328125q-0.48876953125,0.20947265625-0.91845703125,0.29541015625t-1.01513671875,0.0859375z M80.36767578125,7.97607421875q-0.69287109375,0-1.095703125,0.44580078125t-0.47802734375,1.24072265625l3.00244140625,0q-0.0107421875-0.8271484375-0.38134765625-1.2568359375t-1.04736328125-0.4296875z M89.12255859375,13.19140625l-1.009765625-3.3193359375q-0.1396484375-0.41357421875-0.408203125-1.56298828125l-0.04296875,0q-0.2255859375,1.04736328125-0.3974609375,1.57373046875l-1.05810546875,3.30859375l-1.095703125,0l-1.61669921875-5.8974609375l0.9990234375,0q0.55859375,2.17529296875,0.851318359375,3.30859375t0.346435546875,1.6005859375l0.04296875,0l0.0751953125-0.3330078125q0.16650390625-0.76806640625,0.322265625-1.25146484375l1.04736328125-3.32470703125l1.052734375,0l1.01513671875,3.32470703125q0.0537109375,0.18798828125,0.115478515625,0.400146484375t0.115478515625,0.4189453125t0.0966796875,0.40283203125t0.064453125,0.351806640625l0.04833984375,0q0.04833984375-0.408203125,0.39208984375-1.7509765625l0.8271484375-3.1474609375l0.98828125,0l-1.63818359375,5.8974609375l-1.13330078125,0z  M98.1513671875,13.19140625l-2.8359375,0l0-0.5693359375l0.923828125-0.20947265625l0-6.2841796875l-0.923828125-0.22021484375l0-0.5693359375l2.8359375,0l0,0.5693359375l-0.923828125,0.22021484375l0,6.2841796875l0.923828125,0.20947265625l0,0.5693359375z M103.5546875,13.19140625l0-3.7705078125q0-0.7197265625-0.319580078125-1.071533203125t-1.001708984375-0.351806640625q-0.90771484375,0-1.318603515625,0.502197265625t-0.410888671875,1.635498046875l0,3.05615234375l-0.966796875,0l0-5.8974609375l0.77880859375,0l0.14501953125,0.8056640625l0.0537109375,0q0.27392578125-0.43505859375,0.76806640625-0.674072265625t1.09033203125-0.239013671875q1.0849609375,0,1.611328125,0.5263671875t0.5263671875,1.63818359375l0,3.84033203125l-0.9560546875,0z M107.63671875,13.19140625l-2.234375-5.8974609375l1.03662109375,0l1.25146484375,3.47509765625q0.37060546875,1.04736328125,0.47265625,1.56298828125l0.04296875,0q0.01611328125-0.06982421875,0.040283203125-0.158447265625t0.056396484375-0.193359375t0.3974609375-1.211181640625l1.2568359375-3.47509765625l1.03125,0l-2.23974609375,5.8974609375l-1.11181640625,0z M117.046875,10.23193359375q0,1.44482421875-0.73046875,2.255859375t-2.01953125,0.81103515625q-0.80029296875,0-1.41796875-0.373291015625t-0.95068359375-1.071533203125t-0.3330078125-1.6220703125q0-1.439453125,0.7197265625-2.242431640625t2.01953125-0.802978515625q1.24609375,0,1.979248046875,0.819091796875t0.733154296875,2.226318359375z M112.59423828125,10.23193359375q0,1.11181640625,0.437744140625,1.689208984375t1.291748046875,0.577392578125q0.84326171875,0,1.28369140625-0.577392578125t0.4404296875-1.689208984375t-0.443115234375-1.673095703125t-1.297119140625-0.561279296875q-1.71337890625,0-1.71337890625,2.234375z M119.54443359375,13.19140625l-0.966796875,0l0-5.8974609375l0.966796875,0l0,5.8974609375z M118.50244140625,5.69873046875q0-0.322265625,0.163818359375-0.46728515625t0.405517578125-0.14501953125q0.2255859375,0,0.394775390625,0.14501953125t0.169189453125,0.46728515625q0,0.31689453125-0.169189453125,0.46728515625t-0.394775390625,0.150390625q-0.24169921875,0-0.405517578125-0.150390625t-0.163818359375-0.46728515625z M123.77685546875,13.298828125q-1.27294921875,0-1.98193359375-0.781494140625t-0.708984375-2.242431640625q0-1.482421875,0.717041015625-2.285400390625t2.043701171875-0.802978515625q0.4296875,0,0.851318359375,0.088623046875t0.695556640625,0.228271484375l-0.29541015625,0.8056640625q-0.74658203125-0.279296875-1.27294921875-0.279296875q-0.8916015625,0-1.31591796875,0.561279296875t-0.42431640625,1.673095703125q0,1.06884765625,0.42431640625,1.635498046875t1.2568359375,0.566650390625q0.77880859375,0,1.53076171875-0.34375l0,0.859375q-0.6123046875,0.31689453125-1.52001953125,0.31689453125z M129.20166015625,13.298828125q-1.32666015625,0-2.081298828125-0.802978515625t-0.754638671875-2.210205078125q0-1.41796875,0.70361328125-2.258544921875t1.9013671875-0.840576171875q1.11181640625,0,1.7724609375,0.717041015625t0.66064453125,1.941650390625l0,0.58544921875l-4.0390625,0q0.02685546875,1.00439453125,0.51025390625,1.525390625t1.36962890625,0.52099609375q0.47265625,0,0.89697265625-0.083251953125t0.99365234375-0.324951171875l0,0.8486328125q-0.48876953125,0.20947265625-0.91845703125,0.29541015625t-1.01513671875,0.0859375z M128.9599609375,7.97607421875q-0.69287109375,0-1.095703125,0.44580078125t-0.47802734375,1.24072265625l3.00244140625,0q-0.0107421875-0.8271484375-0.38134765625-1.2568359375t-1.04736328125-0.4296875z "/></svg>
</svg>
	
	<path id="Outline" class="outline" d="M367.7,375H116.1c-8.1,0-14.7-6.6-14.7-14.7V108.6c0-8.1,6.6-14.7,14.7-14.7h251.7
	c8.1,0,14.7,6.6,14.7,14.7v251.7C382.4,368.4,375.8,375,367.7,375z M116.1,95.9c-7,0-12.7,5.7-12.7,12.7v251.7
	c0,7,5.7,12.7,12.7,12.7h251.6c7,0,12.7-5.7,12.8-12.7V108.6c0-7-5.7-12.7-12.7-12.7H116.1z"/>
	
<svg xmlns="http://www.w3.org/2000/svg" xmlns:xlink="http://www.w3.org/1999/xlink" version="1.1" width="267.7" height="267.7" viewBox="0 0 2000 2000" x="108.1" y="100.6" shape-rendering="crispEdges"><defs/><rect x="0" y="0" width="2000" height="2000" fill="#ffffff"/><rect x="776" y="200" width="64" height="64" fill="#000000"/><rect x="1096" y="200" width="64" height="64" fill="#000000"/><rect x="1224" y="200" width="64" height="64" fill="#000000"/><rect x="712" y="264" width="64" height="64" fill="#000000"/><rect x="776" y="264" width="64" height="64" fill="#000000"/><rect x="904" y="264" width="64" height="64" fill="#000000"/><rect x="968" y="264" width="64" height="64" fill="#000000"/><rect x="1032" y="264" width="64" height="64" fill="#000000"/><rect x="1096" y="264" width="64" height="64" fill="#000000"/><rect x="776" y="328" width="64" height="64" fill="#000000"/><rect x="840" y="328" width="64" height="64" fill="#000000"/><rect x="904" y="328" width="64" height="64" fill="#000000"/><rect x="712" y="392" width="64" height="64" fill="#000000"/><rect x="776" y="392" width="64" height="64" fill="#000000"/><rect x="904" y="392" width="64" height="64" fill="#000000"/><rect x="1032" y="392" width="64" height="64" fill="#000000"/><rect x="1160" y="392" width="64" height="64" fill="#000000"/><rect x="1224" y="392" width="64" height="64" fill="#000000"/><rect x="840" y="456" width="64" height="64" fill="#000000"/><rect x="968" y="456" width="64" height="64" fill="#000000"/><rect x="1160" y="456" width="64" height="64" fill="#000000"/><rect x="1224" y="456" width="64" height="64" fill="#000000"/><rect x="712" y="520" width="64" height="64" fill="#000000"/><rect x="840" y="520" width="64" height="64" fill="#000000"/><rect x="1032" y="520" width="64" height="64" fill="#000000"/><rect x="1096" y="520" width="64" height="64" fill="#000000"/><rect x="1160" y="520" width="64" height="64" fill="#000000"/><rect x="712" y="584" width="64" height="64" fill="#000000"/><rect x="840" y="584" width="64" height="64" fill="#000000"/><rect x="968" y="584" width="64" height="64" fill="#000000"/><rect x="1096" y="584" width="64" height="64" fill="#000000"/><rect x="1224" y="584" width="64" height="64" fill="#000000"/><rect x="968" y="648" width="64" height="64" fill="#000000"/><rect x="1224" y="648" width="64" height="64" fill="#000000"/><rect x="200" y="712" width="64" height="64" fill="#000000"/><rect x="264" y="712" width="64" height="64" fill="#000000"/><rect x="328" y="712" width="64" height="64" fill="#000000"/><rect x="392" y="712" width="64" height="64" fill="#000000"/><rect x="456" y="712" width="64" height="64" fill="#000000"/><rect x="584" y="712" width="64" height="64" fill="#000000"/><rect x="648" y="712" width="64" height="64" fill="#000000"/><rect x="712" y="712" width="64" height="64" fill="#000000"/><rect x="776" y="712" width="64" height="64" fill="#000000"/><rect x="840" y="712" width="64" height="64" fill="#000000"/><rect x="968" y="712" width="64" height="64" fill="#000000"/><rect x="1096" y="712" width="64" height="64" fill="#000000"/><rect x="1160" y="712" width="64" height="64" fill="#000000"/><rect x="1288" y="712" width="64" height="64" fill="#000000"/><rect x="1416" y="712" width="64" height="64" fill="#000000"/><rect x="1544" y="712" width="64" height="64" fill="#000000"/><rect x="1672" y="712" width="64" height="64" fill="#000000"/><rect x="264" y="776" width="64" height="64" fill="#000000"/><rect x="456" y="776" width="64" height="64" fill="#000000"/><rect x="776" y="776" width="64" height="64" fill="#000000"/><rect x="1096" y="776" width="64" height="64" fill="#000000"/><rect x="1160" y="776" width="64" height="64" fill="#000000"/><rect x="1224" y="776" width="64" height="64" fill="#000000"/><rect x="1288" y="776" width="64" height="64" fill="#000000"/><rect x="1416" y="776" width="64" height="64" fill="#000000"/><rect x="1480" y="776" width="64" height="64" fill="#000000"/><rect x="1736" y="776" width="64" height="64" fill="#000000"/><rect x="392" y="840" width="64" height="64" fill="#000000"/><rect x="520" y="840" width="64" height="64" fill="#000000"/><rect x="584" y="840" width="64" height="64" fill="#000000"/><rect x="648" y="840" width="64" height="64" fill="#000000"/><rect x="776" y="840" width="64" height="64" fill="#000000"/><rect x="904" y="840" width="64" height="64" fill="#000000"/><rect x="968" y="840" width="64" height="64" fill="#000000"/><rect x="1096" y="840" width="64" height="64" fill="#000000"/><rect x="1160" y="840" width="64" height="64" fill="#000000"/><rect x="1288" y="840" width="64" height="64" fill="#000000"/><rect x="1352" y="840" width="64" height="64" fill="#000000"/><rect x="1480" y="840" width="64" height="64" fill="#000000"/><rect x="1608" y="840" width="64" height="64" fill="#000000"/><rect x="456" y="904" width="64" height="64" fill="#000000"/><rect x="520" y="904" width="64" height="64" fill="#000000"/><rect x="648" y="904" width="64" height="64" fill="#000000"/><rect x="776" y="904" width="64" height="64" fill="#000000"/><rect x="840" y="904" width="64" height="64" fill="#000000"/><rect x="904" y="904" width="64" height="64" fill="#000000"/><rect x="1096" y="904" width="64" height="64" fill="#000000"/><rect x="1224" y="904" width="64" height="64" fill="#000000"/><rect x="1288" y="904" width="64" height="64" fill="#000000"/><rect x="328" y="968" width="64" height="64" fill="#000000"/><rect x="456" y="968" width="64" height="64" fill="#000000"/><rect x="584" y="968" width="64" height="64" fill="#000000"/><rect x="776" y="968" width="64" height="64" fill="#000000"/><rect x="904" y="968" width="64" height="64" fill="#000000"/><rect x="1032" y="968" width="64" height="64" fill="#000000"/><rect x="1096" y="968" width="64" height="64" fill="#000000"/><rect x="1160" y="968" width="64" height="64" fill="#000000"/><rect x="1352" y="968" width="64" height="64" fill="#000000"/><rect x="1416" y="968" width="64" height="64" fill="#000000"/><rect x="1480" y="968" width="64" height="64" fill="#000000"/><rect x="1544" y="968" width="64" height="64" fill="#000000"/><rect x="1672" y="968" width="64" height="64" fill="#000000"/><rect x="1736" y="968" width="64" height="64" fill="#000000"/><rect x="200" y="1032" width="64" height="64" fill="#000000"/><rect x="264" y="1032" width="64" height="64" fill="#000000"/><rect x="392" y="1032" width="64" height="64" fill="#000000"/><rect x="520" y="1032" width="64" height="64" fill="#000000"/><rect x="712" y="1032" width="64" height="64" fill="#000000"/><rect x="776" y="1032" width="64" height="64" fill="#000000"/><rect x="840" y="1032" width="64" height="64" fill="#000000"/><rect x="968" y="1032" width="64" height="64" fill="#000000"/><rect x="1224" y="1032" width="64" height="64" fill="#000000"/><rect x="1288" y="1032" width="64" height="64" fill="#000000"/><rect x="1352" y="1032" width="64" height="64" fill="#000000"/><rect x="1416" y="1032" width="64" height="64" fill="#000000"/><rect x="1480" y="1032" width="64" height="64" fill="#000000"/><rect x="200" y="1096" width="64" height="64" fill="#000000"/><rect x="328" y="1096" width="64" height="64" fill="#000000"/><rect x="392" y="1096" width="64" height="64" fill="#000000"/><rect x="456" y="1096" width="64" height="64" fill="#000000"/><rect x="584" y="1096" width="64" height="64" fill="#000000"/><rect x="776" y="1096" width="64" height="64" fill="#000000"/><rect x="1096" y="1096" width="64" height="64" fill="#000000"/><rect x="1288" y="1096" width="64" height="64" fill="#000000"/><rect x="1352" y="1096" width="64" height="64" fill="#000000"/><rect x="1480" y="1096" width="64" height="64" fill="#000000"/><rect x="1608" y="1096" width="64" height="64" fill="#000000"/><rect x="1672" y="1096" width="64" height="64" fill="#000000"/><rect x="1736" y="1096" width="64" height="64" fill="#000000"/><rect x="200" y="1160" width="64" height="64" fill="#000000"/><rect x="648" y="1160" width="64" height="64" fill="#000000"/><rect x="776" y="1160" width="64" height="64" fill="#000000"/><rect x="840" y="1160" width="64" height="64" fill="#000000"/><rect x="968" y="1160" width="64" height="64" fill="#000000"/><rect x="1096" y="1160" width="64" height="64" fill="#000000"/><rect x="1288" y="1160" width="64" height="64" fill="#000000"/><rect x="1672" y="1160" width="64" height="64" fill="#000000"/><rect x="1736" y="1160" width="64" height="64" fill="#000000"/><rect x="200" y="1224" width="64" height="64" fill="#000000"/><rect x="328" y="1224" width="64" height="64" fill="#000000"/><rect x="392" y="1224" width="64" height="64" fill="#000000"/><rect x="456" y="1224" width="64" height="64" fill="#000000"/><rect x="520" y="1224" width="64" height="64" fill="#000000"/><rect x="584" y="1224" width="64" height="64" fill="#000000"/><rect x="712" y="1224" width="64" height="64" fill="#000000"/><rect x="840" y="1224" width="64" height="64" fill="#000000"/><rect x="968" y="1224" width="64" height="64" fill="#000000"/><rect x="1032" y="1224" width="64" height="64" fill="#000000"/><rect x="1160" y="1224" width="64" height="64" fill="#000000"/><rect x="1224" y="1224" width="64" height="64" fill="#000000"/><rect x="1288" y="1224" width="64" height="64" fill="#000000"/><rect x="1352" y="1224" width="64" height="64" fill="#000000"/><rect x="1416" y="1224" width="64" height="64" fill="#000000"/><rect x="1480" y="1224" width="64" height="64" fill="#000000"/><rect x="1544" y="1224" width="64" height="64" fill="#000000"/><rect x="1736" y="1224" width="64" height="64" fill="#000000"/><rect x="712" y="1288" width="64" height="64" fill="#000000"/><rect x="776" y="1288" width="64" height="64" fill="#000000"/><rect x="1096" y="1288" width="64" height="64" fill="#000000"/><rect x="1224" y="1288" width="64" height="64" fill="#000000"/><rect x="1480" y="1288" width="64" height="64" fill="#000000"/><rect x="1736" y="1288" width="64" height="64" fill="#000000"/><rect x="712" y="1352" width="64" height="64" fill="#000000"/><rect x="776" y="1352" width="64" height="64" fill="#000000"/><rect x="840" y="1352" width="64" height="64" fill="#000000"/><rect x="904" y="1352" width="64" height="64" fill="#000000"/><rect x="968" y="1352" width="64" height="64" fill="#000000"/><rect x="1096" y="1352" width="64" height="64" fill="#000000"/><rect x="1224" y="1352" width="64" height="64" fill="#000000"/><rect x="1352" y="1352" width="64" height="64" fill="#000000"/><rect x="1480" y="1352" width="64" height="64" fill="#000000"/><rect x="1608" y="1352" width="64" height="64" fill="#000000"/><rect x="1672" y="1352" width="64" height="64" fill="#000000"/><rect x="1736" y="1352" width="64" height="64" fill="#000000"/><rect x="776" y="1416" width="64" height="64" fill="#000000"/><rect x="840" y="1416" width="64" height="64" fill="#000000"/><rect x="904" y="1416" width="64" height="64" fill="#000000"/><rect x="1096" y="1416" width="64" height="64" fill="#000000"/><rect x="1224" y="1416" width="64" height="64" fill="#000000"/><rect x="1480" y="1416" width="64" height="64" fill="#000000"/><rect x="1544" y="1416" width="64" height="64" fill="#000000"/><rect x="712" y="1480" width="64" height="64" fill="#000000"/><rect x="904" y="1480" width="64" height="64" fill="#000000"/><rect x="968" y="1480" width="64" height="64" fill="#000000"/><rect x="1032" y="1480" width="64" height="64" fill="#000000"/><rect x="1096" y="1480" width="64" height="64" fill="#000000"/><rect x="1224" y="1480" width="64" height="64" fill="#000000"/><rect x="1288" y="1480" width="64" height="64" fill="#000000"/><rect x="1352" y="1480" width="64" height="64" fill="#000000"/><rect x="1416" y="1480" width="64" height="64" fill="#000000"/><rect x="1480" y="1480" width="64" height="64" fill="#000000"/><rect x="1544" y="1480" width="64" height="64" fill="#000000"/><rect x="712" y="1544" width="64" height="64" fill="#000000"/><rect x="840" y="1544" width="64" height="64" fill="#000000"/><rect x="968" y="1544" width="64" height="64" fill="#000000"/><rect x="1096" y="1544" width="64" height="64" fill="#000000"/><rect x="1160" y="1544" width="64" height="64" fill="#000000"/><rect x="1224" y="1544" width="64" height="64" fill="#000000"/><rect x="1352" y="1544" width="64" height="64" fill="#000000"/><rect x="1480" y="1544" width="64" height="64" fill="#000000"/><rect x="1672" y="1544" width="64" height="64" fill="#000000"/><rect x="1736" y="1544" width="64" height="64" fill="#000000"/><rect x="712" y="1608" width="64" height="64" fill="#000000"/><rect x="840" y="1608" width="64" height="64" fill="#000000"/><rect x="968" y="1608" width="64" height="64" fill="#000000"/><rect x="1032" y="1608" width="64" height="64" fill="#000000"/><rect x="1480" y="1608" width="64" height="64" fill="#000000"/><rect x="1608" y="1608" width="64" height="64" fill="#000000"/><rect x="1736" y="1608" width="64" height="64" fill="#000000"/><rect x="712" y="1672" width="64" height="64" fill="#000000"/><rect x="968" y="1672" width="64" height="64" fill="#000000"/><rect x="1096" y="1672" width="64" height="64" fill="#000000"/><rect x="1224" y="1672" width="64" height="64" fill="#000000"/><rect x="1288" y="1672" width="64" height="64" fill="#000000"/><rect x="1352" y="1672" width="64" height="64" fill="#000000"/><rect x="1416" y="1672" width="64" height="64" fill="#000000"/><rect x="1480" y="1672" width="64" height="64" fill="#000000"/><rect x="1544" y="1672" width="64" height="64" fill="#000000"/><rect x="1672" y="1672" width="64" height="64" fill="#000000"/><rect x="712" y="1736" width="64" height="64" fill="#000000"/><rect x="776" y="1736" width="64" height="64" fill="#000000"/><rect x="840" y="1736" width="64" height="64" fill="#000000"/><rect x="968" y="1736" width="64" height="64" fill="#000000"/><rect x="1032" y="1736" width="64" height="64" fill="#000000"/><rect x="1096" y="1736" width="64" height="64" fill="#000000"/><rect x="1160" y="1736" width="64" height="64" fill="#000000"/><rect x="1608" y="1736" width="64" height="64" fill="#000000"/><rect x="1672" y="1736" width="64" height="64" fill="#000000"/><rect x="1736" y="1736" width="64" height="64" fill="#000000"/><svg version="1.1" id="Ebene_1" x="200" y="200" viewBox="0 0 700 700" style="enable-background:new 0 0 700 700;" xml:space="preserve" width="448" height="448" shape-rendering="auto">

<path fill="#000000" d="M21.2-0.1C9.5-0.1-0.1,9.5-0.1,21.2v78.8v100v100v100v100v100v78.8c0,11.7,9.5,21.3,21.3,21.3h657.6  c11.7,0,21.3-9.5,21.3-21.3V600V500V400V300V200v-100V21.2c0-11.7-9.5-21.3-21.3-21.3H21.2z M600,200v100v100v100v87.8  c0,6.8-5.5,12.2-12.2,12.2H112.2c-6.8,0-12.2-5.5-12.2-12.2V500V400V300V200v-87.8c0-6.8,5.5-12.2,12.2-12.2h475.6  c6.8,0,12.2,5.5,12.2,12.2V200z"/>
</svg>
<svg version="1.1" id="Ebene_1" x="200" y="200" viewBox="0 0 700 700" style="enable-background:new 0 0 700 700;" xml:space="preserve" width="448" height="448" shape-rendering="auto">

<path fill="#000000" d="M500,400V300v-78.8c0-11.7-9.5-21.3-21.3-21.3H221.2c-11.7,0-21.3,9.5-21.3,21.3V300v100v78.8    c0,11.7,9.5,21.3,21.3,21.3h257.5c11.7,0,21.3-9.5,21.3-21.3V400z"/>
</svg>
<svg version="1.1" id="Ebene_1" x="1352" y="200" viewBox="0 0 700 700" style="enable-background:new 0 0 700 700;" xml:space="preserve" width="448" height="448" shape-rendering="auto">

<path fill="#000000" d="M21.2-0.1C9.5-0.1-0.1,9.5-0.1,21.2v78.8v100v100v100v100v100v78.8c0,11.7,9.5,21.3,21.3,21.3h657.6  c11.7,0,21.3-9.5,21.3-21.3V600V500V400V300V200v-100V21.2c0-11.7-9.5-21.3-21.3-21.3H21.2z M600,200v100v100v100v87.8  c0,6.8-5.5,12.2-12.2,12.2H112.2c-6.8,0-12.2-5.5-12.2-12.2V500V400V300V200v-87.8c0-6.8,5.5-12.2,12.2-12.2h475.6  c6.8,0,12.2,5.5,12.2,12.2V200z"/>
</svg>
<svg version="1.1" id="Ebene_1" x="1352" y="200" viewBox="0 0 700 700" style="enable-background:new 0 0 700 700;" xml:space="preserve" width="448" height="448" shape-rendering="auto">

<path fill="#000000" d="M500,400V300v-78.8c0-11.7-9.5-21.3-21.3-21.3H221.2c-11.7,0-21.3,9.5-21.3,21.3V300v100v78.8    c0,11.7,9.5,21.3,21.3,21.3h257.5c11.7,0,21.3-9.5,21.3-21.3V400z"/>
</svg>
<svg version="1.1" id="Ebene_1" x="200" y="1352" viewBox="0 0 700 700" style="enable-background:new 0 0 700 700;" xml:space="preserve" width="448" height="448" shape-rendering="auto">

<path fill="#000000" d="M21.2-0.1C9.5-0.1-0.1,9.5-0.1,21.2v78.8v100v100v100v100v100v78.8c0,11.7,9.5,21.3,21.3,21.3h657.6  c11.7,0,21.3-9.5,21.3-21.3V600V500V400V300V200v-100V21.2c0-11.7-9.5-21.3-21.3-21.3H21.2z M600,200v100v100v100v87.8  c0,6.8-5.5,12.2-12.2,12.2H112.2c-6.8,0-12.2-5.5-12.2-12.2V500V400V300V200v-87.8c0-6.8,5.5-12.2,12.2-12.2h475.6  c6.8,0,12.2,5.5,12.2,12.2V200z"/>
</svg>
<svg version="1.1" id="Ebene_1" x="200" y="1352" viewBox="0 0 700 700" style="enable-background:new 0 0 700 700;" xml:space="preserve" width="448" height="448" shape-rendering="auto">

<path fill="#000000" d="M500,400V300v-78.8c0-11.7-9.5-21.3-21.3-21.3H221.2c-11.7,0-21.3,9.5-21.3,21.3V300v100v78.8    c0,11.7,9.5,21.3,21.3,21.3h257.5c11.7,0,21.3-9.5,21.3-21.3V400z"/>
</svg>
</svg>


	<path id="HandsShadow" class="shadow-35 show_on_white" d="M162.3,409.7c0,4.9-3.5,10.2-10.1,10.2h-25c0.8,1.5,1.2,3.2,1.2,5c0,5.8-4.5,10.5-10.2,11
	c0.8,1.5,1.2,3.2,1.2,5.1c0,5.6-4.2,10.2-9.6,10.9c0.8,1.5,1.3,3.3,1.3,5.1c0,6.1-4.9,11-11,11H82.3c-2.5,0-4.7-0.8-6.6-2.2
	c-5.2,2-10.7,3-16.3,3c-10.5,0-21.4-3.4-31.5-10.1h-15C5,458.7,0,453.2,0,444.3v-26.1c0-8,6.5-14.5,14.5-14.5h13.6
	c4-8.6,13-12.6,25-17.9l0.9-0.4c10.4-4.6,10.1-14,9.9-20.8c-0.1-3.7-0.2-6.3,1.6-8c1.8-1.7,4.8-2.4,8-2c2.4,0.3,7,1.6,10.2,6.8
	c4.6,7.6,3.6,20.5-0.1,28c-1.4,2.9-1.6,5.6-0.6,7.2c1.1,1.7,3.5,2,5.3,2H150c4.8,0,7.7,1.8,9.3,3.3
	C161.2,404.1,162.3,406.8,162.3,409.7z M105.2,457c0-2.8-2.3-5-5-5H82.3c-2.8,0-5,2.3-5,5s2.3,5,5,5h17.9
	C103,462.1,105.2,459.8,105.2,457z M113.5,441c0-2.8-2.3-5-5-5H83.2h-0.9c-2.8,0-5,2.3-5,5s2.3,5,5,5h17.9h8.3
	C111.2,446,113.5,443.8,113.5,441z M117.4,419.9h-13H83.2c-2.2,0-4.1,1.4-4.7,3.4c-0.1,0.4-0.2,0.8-0.2,1.1c0,0.2,0,0.3,0,0.5
	c0,2.8,2.3,5,5,5h25.3h8.9c2.8,0,5-2.3,5-5S120.2,419.9,117.4,419.9z M156.3,409.7c0-1.3-0.5-2.4-1.4-3.3c-1.1-1.1-2.9-1.7-5.1-1.7
	H88.2c-6.1,0-9-2.6-10.4-4.8c-2.1-3.4-2-8.1,0.3-13c2.9-6,3.7-16.8,0.4-22.3c-1.8-3-4.3-3.8-5.7-4c-1.4-0.2-2.4,0-2.9,0.2
	c-0.1,0.8,0,2.4,0,3.6c0.2,7.1,0.6,20.2-13.5,26.5l-0.9,0.4c-16.5,7.4-24.1,10.7-23.7,25c0,1.7-1.3,3-2.9,3.1c-1.7,0-3-1.3-3.1-2.9
	c-0.1-2.5,0.1-4.7,0.4-6.7H14.5c-4.7,0-8.5,3.8-8.5,8.5v26.1c0,3.8,1.2,8.4,6.9,8.4h16.9l0.8,0.5c18.1,12.5,33.5,10.3,41.4,7.6
	c-0.4-1.2-0.7-2.5-0.7-3.8c0-3.2,1.3-6,3.5-8c-2.1-2-3.5-4.9-3.5-8c0-0.8,0.1-1.6,0.3-2.4c-3.5,4.5-8,8.3-13.3,10.8
	c-0.4,0.2-0.9,0.3-1.3,0.3c-1.1,0-2.2-0.6-2.7-1.7c-0.7-1.5-0.1-3.3,1.4-4c8.4-4,14.4-11.7,16.6-20.5c0.1-0.6,0.2-1.3,0.4-1.9
	c0.3-1.8,0.5-3.6,0.5-5.4c0-2.1-0.2-4.2-0.6-6.2c-0.3-1.6,0.7-3.2,2.3-3.5c1.6-0.3,3.2,0.7,3.5,2.3c0.4,1.9,0.6,3.9,0.7,5.9
	c1.3-0.5,2.6-0.8,4.1-0.8h21.2h13h34.8C155.5,413.9,156.3,411.3,156.3,409.7z M485,27.3v26.1c0,8-6.5,14.5-14.5,14.5h-13.6
	c-4,8.6-13,12.6-25,17.9l-0.9,0.4c-10.4,4.6-10.1,14-9.9,20.8c0.1,3.7,0.2,6.3-1.6,8c-1.4,1.4-3.8,2.1-6.3,2.1c-0.6,0-1.1,0-1.7-0.1
	c-2.4-0.3-7-1.6-10.2-6.8c-4.6-7.6-3.6-20.5,0.1-28c1.4-2.9,1.6-5.6,0.6-7.2c-1.1-1.7-3.5-2-5.3-2H335c-4.8,0-7.7-1.8-9.3-3.3
	c-2.1-2-3.2-4.7-3.2-7.6c0-4.9,3.5-10.2,10.1-10.2h28.1c-0.8-1.5-1.2-3.2-1.2-5c0-5.8,4.5-10.5,10.2-11c-0.8-1.5-1.2-3.2-1.2-5.1
	c0-5.6,4.2-10.2,9.6-10.9c-0.8-1.5-1.3-3.3-1.3-5.1c0-5.9,4.7-10.7,10.5-11c26.2-8.4,53.6-1.5,69.7,9.3h15.1
	C480,13,485,18.5,485,27.3z M479,27.3c0-6.9-3.7-8.4-6.9-8.4h-16.9l-0.8-0.5c-11.1-7.6-37.4-18.1-65.6-8.9c-0.1,0-0.1,0-0.2,0
	s-0.2,0-0.3,0.1c-0.1,0-0.2,0-0.3,0c-0.1,0-0.1,0-0.1,0c-2.8,0-5,2.3-5,5s2.3,5,5,5V20c1,0.5,1.8,1.5,1.8,2.7s-0.7,2.3-1.8,2.7v0.3
	h-1.2h-7.1c-2.8,0-5,2.3-5,5s2.3,5,5,5h6.1h0.9c1.7,0,3,1.3,3,3s-1.3,3-3,3h-0.9h-6.1h-8.9c-2.8,0-5,2.3-5,5s2.3,5,5,5h10h5.1
	c1.7,0,3,1.3,3,3s-1.3,3-3,3h-5.1h-10h-37.9c-3.2,0-4.1,2.6-4.1,4.2c0,1.3,0.5,2.4,1.4,3.3c1.1,1.1,2.9,1.7,5.1,1.7h61.7
	c6.1,0,9,2.6,10.4,4.8c2.1,3.4,2,8.1-0.3,13c-2.9,6-3.7,16.8-0.4,22.3c1.8,3,4.3,3.8,5.7,4c1.4,0.2,2.4,0,2.9-0.2
	c0.1-0.8,0-2.4,0-3.6c-0.2-7.1-0.6-20.2,13.5-26.5l0.9-0.4c16.5-7.4,24.1-10.7,23.7-25c0-1.7,1.3-3,2.9-3.1c1.7,0,3,1.3,3.1,2.9
	c0.1,2.5-0.1,4.7-0.4,6.7h11.8c4.7,0,8.5-3.8,8.5-8.5v-26C479.2,27.3,479,27.3,479,27.3z"/>
</svg>
